<svg width="119" height="24" viewBox="0 0 119 24" fill="none" xmlns="http://www.w3.org/2000/svg">
<path d="M23.9606 0H0V24H23.9606V0Z" fill="#005A74"/>
<path d="M13.6565 4.50781H8.10778C7.62889 4.50781 7.23828 4.89906 7.23828 5.37874V15.4091C7.23828 15.8888 7.62889 16.28 8.10778 16.28H13.6565C15.7165 16.28 17.394 14.5998 17.394 12.5364V8.25145C17.394 6.18803 15.7165 4.50781 13.6565 4.50781ZM9.52572 6.79902H13.6565C14.4564 6.79902 15.1065 7.4502 15.1065 8.25145V12.5364C15.1065 13.3377 14.4564 13.9888 13.6565 13.9888H9.52304V6.79634L9.52572 6.79902Z" fill="white"/>
<mask id="mask0_4630_7503" style="mask-type:luminance" maskUnits="userSpaceOnUse" x="0" y="0" width="24" height="24">
<path d="M23.9606 0H0V24H23.9606V0Z" fill="white"/>
</mask>
<g mask="url(#mask0_4630_7503)">
<path d="M29.121 19.4817C29.121 19.3665 29.03 19.2754 28.915 19.2754H10.1606C8.60625 19.2754 7.33545 20.484 7.22844 22.0168H7.22576C7.11875 20.4866 5.85061 19.2754 4.29355 19.2754H-3.69243C-3.80479 19.2754 -3.89844 19.3665 -3.89844 19.4817V21.9042C-3.89844 21.9632 -3.87436 22.0141 -3.83423 22.0516V24.7448H29.121V22.0168H29.0835C29.105 21.9846 29.121 21.9471 29.121 21.9042V19.4817Z" fill="#5AB88F"/>
</g>
<path d="M61.8229 4.5H55.8222C55.3362 4.5 54.9453 4.90212 54.9453 5.38889V16.0238C54.9453 16.2778 55.146 16.4894 55.4102 16.4894H56.8047C57.0582 16.4894 57.2695 16.2778 57.2695 16.0238V6.82804H61.8335C62.4356 6.82804 62.9111 7.31481 62.9111 7.90741V16.0132C62.9111 16.2672 63.1224 16.4788 63.3759 16.4788H64.7704C65.024 16.4788 65.2353 16.2672 65.2353 16.0132V7.90741C65.2247 6.03439 63.6928 4.5 61.8229 4.5Z" fill="#005A74"/>
<path d="M36.4676 4.55273H30.8261C30.3401 4.55273 29.9492 4.94427 29.9492 5.43104V15.6109C29.9492 16.0977 30.3401 16.4998 30.8261 16.4998H36.457C38.5488 16.4998 40.2498 14.7961 40.2498 12.7009V8.35168C40.2603 6.25644 38.5594 4.55273 36.4676 4.55273ZM32.2734 6.88078H36.4676C37.2811 6.88078 37.9361 7.53686 37.9361 8.35168V12.7009C37.9361 13.5157 37.2811 14.1718 36.4676 14.1718H32.2734V6.88078Z" fill="#005A74"/>
<path d="M76.194 4.5H66.9922C66.7386 4.5 66.5273 4.71164 66.5273 4.96561V6.36243C66.5273 6.6164 66.7386 6.82804 66.9922 6.82804H70.4363V16.0344C70.4363 16.2884 70.637 16.5 70.9011 16.5H72.2956C72.5492 16.5 72.7605 16.2884 72.7605 16.0344V6.82804H76.194C76.4476 6.82804 76.6588 6.6164 76.6588 6.36243V4.96561C76.6588 4.71164 76.4476 4.5 76.194 4.5Z" fill="#005A74"/>
<path d="M115.599 4.5H109.598C109.112 4.5 108.711 4.90212 108.711 5.38889V16.0238C108.711 16.2778 108.922 16.4894 109.176 16.4894H110.57C110.824 16.4894 111.035 16.2778 111.035 16.0238V6.82804H115.599C116.201 6.82804 116.677 7.31481 116.677 7.90741V16.0132C116.677 16.2672 116.888 16.4788 117.142 16.4788H118.536C118.79 16.4788 119.001 16.2672 119.001 16.0132V7.90741C119.001 6.03439 117.48 4.5 115.599 4.5Z" fill="#005A74"/>
<path d="M102.543 4.5H100.008C97.9157 4.5 96.2148 6.2037 96.2148 8.29894V12.7011C96.2148 14.7963 97.9157 16.5 100.008 16.5H102.543C104.635 16.5 106.336 14.7963 106.336 12.7011V8.29894C106.336 6.2037 104.635 4.5 102.543 4.5ZM104.022 12.7011C104.022 13.5159 103.367 14.172 102.554 14.172H100.018C99.2046 14.172 98.5496 13.5159 98.5496 12.7011V8.29894C98.5496 7.48413 99.2046 6.82804 100.018 6.82804H102.554C103.367 6.82804 104.022 7.48413 104.022 8.29894V12.7011Z" fill="#005A74"/>
<path d="M93.1172 4.5H91.7227C91.4691 4.5 91.2578 4.71164 91.2578 4.96561V16.0344C91.2578 16.2884 91.4691 16.5 91.7227 16.5H93.1172C93.3707 16.5 93.582 16.2884 93.582 16.0344V4.96561C93.582 4.71164 93.3707 4.5 93.1172 4.5Z" fill="#005A74"/>
<path d="M50.1276 4.5H45.0143C43.5247 4.5 42.3203 5.70635 42.3203 7.18783V13.8016C42.3203 15.2831 43.5247 16.4894 45.0037 16.4894H52.0504C52.3039 16.4894 52.5152 16.2778 52.5152 16.0238V14.627C52.5152 14.373 52.3039 14.1614 52.0504 14.1614H45.0037C44.803 14.1614 44.634 13.9921 44.634 13.791V7.18783C44.634 6.98677 44.7924 6.81746 45.0037 6.81746H50.117C50.3178 6.81746 50.4868 6.98677 50.4868 7.18783V9.52645C50.4868 9.72751 50.3178 9.89683 50.117 9.89683H46.113C45.8595 9.89683 45.6482 10.1085 45.6482 10.3624V11.7698C45.6482 12.0238 45.8489 12.2354 46.113 12.2354H50.117C51.5961 12.2354 52.8004 11.0291 52.8004 9.54762V7.20899C52.811 5.70635 51.6066 4.5 50.1276 4.5Z" fill="#005A74"/>
<path d="M88.6053 8.42593C88.4997 6.22487 86.6297 4.5 84.3583 4.5H79.3718C78.8858 4.5 78.4844 4.90212 78.4844 5.37831V16.0344C78.4844 16.2884 78.6957 16.5 78.9492 16.5H80.3438C80.5973 16.5 80.8086 16.2884 80.8086 16.0344V6.82804H84.4745C84.9922 6.82804 85.4887 7.05026 85.8374 7.4418C86.186 7.84392 86.3445 8.35185 86.2705 8.88095C86.1543 9.78042 85.3514 10.4577 84.4111 10.4577H82.4778C82.2243 10.4577 82.013 10.6693 82.013 10.9233V12.3201C82.013 12.5741 82.2243 12.7857 82.4778 12.7857H83.4075L85.6789 16.1825C85.8162 16.3836 86.0381 16.5 86.2811 16.5H88.0243C88.151 16.5 88.2778 16.4259 88.3412 16.3095C88.4046 16.1931 88.394 16.0556 88.3201 15.9392L86.0064 12.4894C86.5558 12.2672 87.0523 11.9392 87.4749 11.4947C88.2672 10.6693 88.6687 9.57937 88.6053 8.43651" fill="#005A74"/>
</svg>
