<svg width="24" height="24" viewBox="0 0 24 24" fill="none" xmlns="http://www.w3.org/2000/svg">
<rect x="5.7" y="5.7" width="12.6" height="12.6" rx="1.3" fill="white" stroke="#7C7C7C" stroke-width="1.4"/>
<path d="M9.50503 11.5054C9.37375 11.6366 9.3 11.8147 9.3 12.0003V14.0003C9.3 14.3869 9.6134 14.7003 10 14.7003H12C12.1857 14.7003 12.3637 14.6266 12.495 14.4953L19.7879 7.20242C20.4518 6.53853 20.4518 5.46215 19.7879 4.79826L19.2021 4.21247L18.7095 4.70505L19.2021 4.21247C18.5382 3.54858 17.4618 3.54858 16.7979 4.21247L9.50503 11.5054Z" fill="white" stroke="white" stroke-width="1.4" stroke-linejoin="round"/>
<path d="M19.697 3.71651C18.7597 2.78004 17.2407 2.7803 16.3037 3.7173M16.3037 3.7173L16.3037 3.7173L16.7825 4.19612L16.3037 3.7173ZM11.4008 12.58L18.0008 5.98004L18.0209 6.00014L11.4209 12.6001H11.4008V12.58Z" fill="#7C7C7C" stroke="white" stroke-width="1.4" stroke-linejoin="round"/>
<path d="M17.3449 9.1568C17.4761 9.28807 17.6542 9.36182 17.8398 9.36182C18.0255 9.36182 18.2035 9.28807 18.3348 9.1568L19.3248 8.16685C19.456 8.03557 19.5298 7.85753 19.5298 7.67188C19.5298 7.48622 19.456 7.30818 19.3248 7.1769L16.8248 4.6769C16.5514 4.40353 16.1082 4.40353 15.8348 4.6769L14.8449 5.66685C14.5715 5.94022 14.5715 6.38343 14.8449 6.6568L17.3449 9.1568Z" fill="#7C7C7C" stroke="white" stroke-width="1.4" stroke-linejoin="round"/>
<path d="M10 12V14H12L19.2929 6.70711C19.6834 6.31658 19.6834 5.68342 19.2929 5.29289L18.7071 4.70711C18.3166 4.31658 17.6834 4.31658 17.2929 4.70711L10 12Z" fill="white" stroke="#7C7C7C" stroke-width="1.4" stroke-linejoin="round"/>
<path d="M15.832 5.6665L18.332 8.1665" stroke="#7C7C7C" stroke-width="1.4" stroke-linejoin="round"/>
</svg>
